<svg id="レイヤー_1" data-name="レイヤー 1" xmlns="http://www.w3.org/2000/svg" viewBox="0 0 253 320"><defs><style>.cls-1,.cls-2,.cls-3,.cls-6{fill:none;}.cls-1,.cls-2,.cls-3,.cls-4,.cls-6{stroke:#8e7b28;stroke-miterlimit:10;}.cls-1{stroke-width:3px;}.cls-3{stroke-dasharray:2 2;}.cls-4,.cls-5,.cls-7,.cls-8{fill:#8e7b28;}.cls-6{stroke-width:0.75px;}.cls-7{font-size:125px;font-family:LucidaHandwriting-Italic, Lucida Handwriting;font-style:italic;}.cls-8{font-size:64.22px;font-family:BaskOldFace, Baskerville Old Face;}</style></defs><circle class="cls-1" cx="126.5" cy="126.5" r="125"/><circle class="cls-2" cx="126.5" cy="126.5" r="120.83"/><circle class="cls-1" cx="126.5" cy="126.5" r="116.67"/><circle class="cls-1" cx="126.5" cy="126.5" r="108.33"/><circle class="cls-3" cx="126.5" cy="126.5" r="112.5"/><circle class="cls-2" cx="126.5" cy="126.5" r="105"/><circle class="cls-2" cx="126.5" cy="126.5" r="102.5"/><path class="cls-4" d="M607.27,268.46c0,3-2.71,5.41-2.71,5.41s-2.71-2.42-2.71-5.41,2.71-5.42,2.71-5.42S607.27,265.46,607.27,268.46Z" transform="translate(-527.85 -223.21)"/><path class="cls-4" d="M705.42,274.42c-1.06,2.8-4.46,4.1-4.46,4.1s-1.66-3.24-.6-6,4.47-4.09,4.47-4.09S706.49,271.63,705.42,274.42Z" transform="translate(-527.85 -223.21)"/><path class="cls-4" d="M739,310.34c-2.08,2.15-5.71,2-5.71,2s-.27-3.63,1.81-5.78,5.72-2,5.72-2S741.09,308.19,739,310.34Z" transform="translate(-527.85 -223.21)"/><path class="cls-4" d="M584.84,405.34c-2.08,2.15-5.71,2-5.71,2s-.26-3.63,1.82-5.78,5.71-2,5.71-2S586.92,403.19,584.84,405.34Z" transform="translate(-527.85 -223.21)"/><path class="cls-4" d="M633.09,402.32c.33,3-2.08,5.68-2.08,5.68s-3-2.1-3.31-5.07,2.08-5.69,2.08-5.69S632.75,399.34,633.09,402.32Z" transform="translate(-527.85 -223.21)"/><path class="cls-4" d="M645.59,425.65c.33,3-2.08,5.69-2.08,5.69s-3-2.11-3.31-5.08,2.08-5.69,2.08-5.69S645.25,422.68,645.59,425.65Z" transform="translate(-527.85 -223.21)"/><path class="cls-4" d="M625.59,434c.33,3-2.08,5.69-2.08,5.69s-3-2.1-3.31-5.08,2.08-5.68,2.08-5.68S625.25,431,625.59,434Z" transform="translate(-527.85 -223.21)"/><path class="cls-4" d="M693.17,267c-2.08,2.15-5.71,2-5.71,2s-.26-3.63,1.82-5.78,5.71-2,5.71-2S695.25,264.86,693.17,267Z" transform="translate(-527.85 -223.21)"/><path class="cls-4" d="M615.67,423.67c-2.08,2.15-5.71,2-5.71,2s-.26-3.62,1.82-5.77,5.71-2,5.71-2S617.75,421.52,615.67,423.67Z" transform="translate(-527.85 -223.21)"/><path class="cls-4" d="M602.25,427.92c-.33,3-3.28,5.09-3.28,5.09s-2.43-2.71-2.1-5.69,3.29-5.08,3.29-5.08S602.58,425,602.25,427.92Z" transform="translate(-527.85 -223.21)"/><path class="cls-4" d="M725.64,414.43c-2.92-.65-4.7-3.82-4.7-3.82s3-2.12,5.88-1.46,4.69,3.82,4.69,3.82S728.56,415.09,725.64,414.43Z" transform="translate(-527.85 -223.21)"/><path class="cls-4" d="M702.44,416c-1.86-2.35-1.24-5.93-1.24-5.93s3.63.22,5.48,2.57,1.24,5.93,1.24,5.93S704.29,418.32,702.44,416Z" transform="translate(-527.85 -223.21)"/><path class="cls-4" d="M717.44,428.47c-1.86-2.35-1.24-5.93-1.24-5.93s3.63.22,5.48,2.57,1.24,5.93,1.24,5.93S719.29,430.82,717.44,428.47Z" transform="translate(-527.85 -223.21)"/><path class="cls-4" d="M609.1,279.3c-1.85-2.34-1.23-5.92-1.23-5.92s3.62.22,5.48,2.56,1.24,5.93,1.24,5.93S611,281.65,609.1,279.3Z" transform="translate(-527.85 -223.21)"/><path class="cls-4" d="M660.77,427.64c-1.86-2.35-1.24-5.93-1.24-5.93s3.63.22,5.49,2.57,1.24,5.92,1.24,5.92S662.63,430,660.77,427.64Z" transform="translate(-527.85 -223.21)"/><path class="cls-4" d="M585.77,291.8c-1.86-2.34-1.24-5.92-1.24-5.92s3.63.22,5.49,2.56,1.24,5.93,1.24,5.93S587.63,294.15,585.77,291.8Z" transform="translate(-527.85 -223.21)"/><path class="cls-4" d="M737.42,391.86c2.69,1.31,3.67,4.81,3.67,4.81s-3.37,1.37-6.05.05-3.68-4.82-3.68-4.82S734.73,390.54,737.42,391.86Z" transform="translate(-527.85 -223.21)"/><path class="cls-4" d="M718.8,274.3c-.93,2.84-4.26,4.3-4.26,4.3s-1.82-3.14-.89-6,4.26-4.3,4.26-4.3S719.73,271.45,718.8,274.3Z" transform="translate(-527.85 -223.21)"/><path class="cls-4" d="M584.61,296.7c1,2.82-.71,6-.71,6s-3.37-1.36-4.39-4.18.71-6,.71-6S583.59,293.89,584.61,296.7Z" transform="translate(-527.85 -223.21)"/><path class="cls-4" d="M670.44,258.37c1,2.81-.71,6-.71,6s-3.37-1.36-4.38-4.17.7-6,.7-6S669.43,255.56,670.44,258.37Z" transform="translate(-527.85 -223.21)"/><path class="cls-4" d="M692.11,425.87c1,2.81-.71,6-.71,6s-3.37-1.36-4.39-4.17.71-6,.71-6S691.09,423.06,692.11,425.87Z" transform="translate(-527.85 -223.21)"/><path class="cls-4" d="M640.44,259.2c1,2.82-.71,6-.71,6s-3.37-1.36-4.38-4.18.7-6,.7-6S639.43,256.39,640.44,259.2Z" transform="translate(-527.85 -223.21)"/><path class="cls-5" d="M628.43,261.78c4.17-7.23-5.22-7.23-1,0-4.17-7.23-8.87.91-.52.91-8.35,0-3.65,8.13.52.9-4.17,7.23,5.22,7.23,1,0,4.17,7.23,8.87-.9.52-.9C637.3,262.69,632.6,254.55,628.43,261.78Z" transform="translate(-527.85 -223.21)"/><path class="cls-2" d="M628.43,261.78c4.17-7.23-5.22-7.23-1,0-4.17-7.23-8.87.91-.52.91-8.35,0-3.65,8.13.52.9-4.17,7.23,5.22,7.23,1,0,4.17,7.23,8.87-.9.52-.9C637.3,262.69,632.6,254.55,628.43,261.78Z" transform="translate(-527.85 -223.21)"/><path class="cls-5" d="M599.26,282.62c4.18-7.24-5.22-7.24-1,0-4.18-7.24-8.88.9-.53.9-8.35,0-3.65,8.13.53.9-4.18,7.23,5.22,7.23,1,0,4.18,7.23,8.87-.9.52-.9C608.13,283.52,603.44,275.38,599.26,282.62Z" transform="translate(-527.85 -223.21)"/><path class="cls-2" d="M599.26,282.62c4.18-7.24-5.22-7.24-1,0-4.18-7.24-8.88.9-.53.9-8.35,0-3.65,8.13.53.9-4.18,7.23,5.22,7.23,1,0,4.18,7.23,8.87-.9.52-.9C608.13,283.52,603.44,275.38,599.26,282.62Z" transform="translate(-527.85 -223.21)"/><path class="cls-5" d="M655.4,276.64c0-8.35-8.13-3.65-.9.52-7.23-4.17-7.23,5.22,0,1-7.23,4.17.9,8.87.9.52,0,8.35,8.14,3.65.91-.52,7.23,4.17,7.23-5.22,0-1C663.54,273,655.4,268.29,655.4,276.64Z" transform="translate(-527.85 -223.21)"/><path class="cls-2" d="M655.4,276.64c0-8.35-8.13-3.65-.9.52-7.23-4.17-7.23,5.22,0,1-7.23,4.17.9,8.87.9.52,0,8.35,8.14,3.65.91-.52,7.23,4.17,7.23-5.22,0-1C663.54,273,655.4,268.29,655.4,276.64Z" transform="translate(-527.85 -223.21)"/><path class="cls-5" d="M606.92,402.73c5.48-6.3-3.74-8.09-1-.2-2.72-7.89-8.88-.81-.69.79-8.19-1.6-5.14,7.29.34,1-5.48,6.3,3.74,8.09,1,.2,2.71,7.89,8.88.81.68-.79C615.46,405.32,612.4,396.43,606.92,402.73Z" transform="translate(-527.85 -223.21)"/><path class="cls-2" d="M606.92,402.73c5.48-6.3-3.74-8.09-1-.2-2.72-7.89-8.88-.81-.69.79-8.19-1.6-5.14,7.29.34,1-5.48,6.3,3.74,8.09,1,.2,2.71,7.89,8.88.81.68-.79C615.46,405.32,612.4,396.43,606.92,402.73Z" transform="translate(-527.85 -223.21)"/><path class="cls-5" d="M674,273.35c2.18-8.06-6.9-5.66-1,.26-5.89-5.92-8.34,3.15-.27,1-8.07,2.14-1.45,8.8.74.74-2.19,8.06,6.89,5.65,1-.27,5.89,5.92,8.35-3.14.28-1C682.82,272,676.19,265.29,674,273.35Z" transform="translate(-527.85 -223.21)"/><path class="cls-2" d="M674,273.35c2.18-8.06-6.9-5.66-1,.26-5.89-5.92-8.34,3.15-.27,1-8.07,2.14-1.45,8.8.74.74-2.19,8.06,6.89,5.65,1-.27,5.89,5.92,8.35-3.14.28-1C682.82,272,676.19,265.29,674,273.35Z" transform="translate(-527.85 -223.21)"/><path class="cls-5" d="M721.76,291c4.18-7.23-5.22-7.23-1,0-4.18-7.23-8.88.9-.53.9-8.35,0-3.65,8.14.53.91-4.18,7.23,5.22,7.23,1,0,4.18,7.23,8.87-.91.52-.91C730.63,291.85,725.94,283.72,721.76,291Z" transform="translate(-527.85 -223.21)"/><path class="cls-2" d="M721.76,291c4.18-7.23-5.22-7.23-1,0-4.18-7.23-8.88.9-.53.9-8.35,0-3.65,8.14.53.91-4.18,7.23,5.22,7.23,1,0,4.18,7.23,8.87-.91.52-.91C730.63,291.85,725.94,283.72,721.76,291Z" transform="translate(-527.85 -223.21)"/><path class="cls-5" d="M637.48,440.06c3.28-7.68-6.05-6.55-1,.12-5-6.67-8.7,2-.41,1-8.29,1-2.66,8.52.62.84-3.28,7.68,6.05,6.55,1-.13,5,6.68,8.7-2,.41-1C646.4,439.89,640.76,432.38,637.48,440.06Z" transform="translate(-527.85 -223.21)"/><path class="cls-2" d="M637.48,440.06c3.28-7.68-6.05-6.55-1,.12-5-6.67-8.7,2-.41,1-8.29,1-2.66,8.52.62.84-3.28,7.68,6.05,6.55,1-.13,5,6.68,8.7-2,.41-1C646.4,439.89,640.76,432.38,637.48,440.06Z" transform="translate(-527.85 -223.21)"/><path class="cls-5" d="M675.93,436c4.17-7.23-5.22-7.23-1,0-4.17-7.23-8.87.9-.52.9-8.35,0-3.65,8.14.52.91-4.17,7.23,5.22,7.23,1,0,4.17,7.23,8.87-.91.52-.91C684.8,436.85,680.1,428.72,675.93,436Z" transform="translate(-527.85 -223.21)"/><path class="cls-2" d="M675.93,436c4.17-7.23-5.22-7.23-1,0-4.17-7.23-8.87.9-.52.9-8.35,0-3.65,8.14.52.91-4.17,7.23,5.22,7.23,1,0,4.17,7.23,8.87-.91.52-.91C684.8,436.85,680.1,428.72,675.93,436Z" transform="translate(-527.85 -223.21)"/><path class="cls-5" d="M697.83,435.3c6-5.76-3-8.41-1-.29-2-8.12-8.77-1.64-.76.72-8-2.36-5.8,6.77.25,1-6.05,5.76,3,8.41,1,.29,2,8.12,8.76,1.64.75-.72C706.08,438.67,703.87,429.54,697.83,435.3Z" transform="translate(-527.85 -223.21)"/><path class="cls-2" d="M697.83,435.3c6-5.76-3-8.41-1-.29-2-8.12-8.77-1.64-.76.72-8-2.36-5.8,6.77.25,1-6.05,5.76,3,8.41,1,.29,2,8.12,8.76,1.64.75-.72C706.08,438.67,703.87,429.54,697.83,435.3Z" transform="translate(-527.85 -223.21)"/><path class="cls-5" d="M714.49,395.3c6-5.76-3-8.41-1-.29-2-8.12-8.76-1.64-.75.72-8-2.36-5.8,6.77.24,1-6,5.76,3,8.41,1,.29,2,8.12,8.77,1.64.76-.72C722.75,398.67,720.54,389.54,714.49,395.3Z" transform="translate(-527.85 -223.21)"/><path class="cls-2" d="M714.49,395.3c6-5.76-3-8.41-1-.29-2-8.12-8.76-1.64-.75.72-8-2.36-5.8,6.77.24,1-6,5.76,3,8.41,1,.29,2,8.12,8.77,1.64.76-.72C722.75,398.67,720.54,389.54,714.49,395.3Z" transform="translate(-527.85 -223.21)"/><path class="cls-5" d="M583.43,310.12c4.17-7.24-5.22-7.24-1,0-4.17-7.24-8.87.9-.52.9-8.35,0-3.65,8.13.52.9-4.17,7.23,5.22,7.23,1,0,4.17,7.23,8.87-.9.52-.9C592.3,311,587.6,302.88,583.43,310.12Z" transform="translate(-527.85 -223.21)"/><path class="cls-2" d="M583.43,310.12c4.17-7.24-5.22-7.24-1,0-4.17-7.24-8.87.9-.52.9-8.35,0-3.65,8.13.52.9-4.17,7.23,5.22,7.23,1,0,4.17,7.23,8.87-.9.52-.9C592.3,311,587.6,302.88,583.43,310.12Z" transform="translate(-527.85 -223.21)"/><path class="cls-2" d="M573.52,314.71c0-23.5,19.75-42.5,44.17-42.5" transform="translate(-527.85 -223.21)"/><path class="cls-2" d="M611,272.21c0-9.68,13.42-17.5,30-17.5" transform="translate(-527.85 -223.21)"/><path class="cls-6" d="M574.35,306.37a4.17,4.17,0,0,0,4.17,4.17" transform="translate(-527.85 -223.21)"/><path class="cls-6" d="M601.85,274.71c0,2.76-.74,5-1.66,5" transform="translate(-527.85 -223.21)"/><path class="cls-2" d="M742.69,314.71c0-20.73-16.4-37.5-36.67-37.5" transform="translate(-527.85 -223.21)"/><path class="cls-2" d="M683.52,259.71c0-3.69-14.91-6.67-33.33-6.67" transform="translate(-527.85 -223.21)"/><path class="cls-2" d="M711.85,283c0-14.28-16.4-25.83-36.66-25.83" transform="translate(-527.85 -223.21)"/><path class="cls-2" d="M656.85,253.87c0,12.44,5.59,22.5,12.5,22.5" transform="translate(-527.85 -223.21)"/><path class="cls-2" d="M641,255.54c0,10.59,4.84,19.17,10.83,19.17" transform="translate(-527.85 -223.21)"/><path class="cls-6" d="M726,283.87c0,2.31-2.24,4.17-5,4.17" transform="translate(-527.85 -223.21)"/><path class="cls-2" d="M573.52,393.87c0,21.19,37.27,38.34,83.33,38.34" transform="translate(-527.85 -223.21)"/><path class="cls-2" d="M598.52,421.37c0-7.37,19-13.33,42.5-13.33" transform="translate(-527.85 -223.21)"/><path class="cls-6" d="M650.19,432.21c0,6,8.57,10.83,19.16,10.83" transform="translate(-527.85 -223.21)"/><path class="cls-2" d="M742.69,393.87c0,7.83-15.66,14.17-35,14.17" transform="translate(-527.85 -223.21)"/><path class="cls-2" d="M721,407.21c0,13.81-9.32,25-20.83,25" transform="translate(-527.85 -223.21)"/><path class="cls-2" d="M659.35,441.37c0-12.89,26.84-23.33,60-23.33" transform="translate(-527.85 -223.21)"/><path class="cls-6" d="M607.69,413v-5.83" transform="translate(-527.85 -223.21)"/><path class="cls-6" d="M630.19,430.54c0,3.68,2.23,6.67,5,6.67" transform="translate(-527.85 -223.21)"/><path class="cls-6" d="M671,428c0,3.22,1.12,5.83,2.5,5.83" transform="translate(-527.85 -223.21)"/><path class="cls-6" d="M715.19,399.71c0,3.22,5.59,5.83,12.5,5.83" transform="translate(-527.85 -223.21)"/><text class="cls-7" transform="translate(45.52 162.29)">P</text><text class="cls-7" transform="translate(97.57 168.13)">a</text><text class="cls-8" transform="translate(18.5 303.1) scale(1.31 1)">parfait</text></svg>